<?xml version="1.0" encoding="UTF-8" standalone="no"?>
<svg xmlns:inkscape="http://www.inkscape.org/namespaces/inkscape" xmlns:sodipodi="http://sodipodi.sourceforge.net/DTD/sodipodi-0.dtd" xmlns="http://www.w3.org/2000/svg" xmlns:svg="http://www.w3.org/2000/svg" enable-background="new 0 0 32 32" height="32" viewBox="0 0 32 32" width="32" version="1.1" id="svg2" sodipodi:docname="ferry_terminal.svg" inkscape:export-filename="ferry32.png" inkscape:export-xdpi="96" inkscape:export-ydpi="96">
  <defs id="defs2"/>
  <sodipodi:namedview id="namedview2" pagecolor="#505050" bordercolor="#eeeeee" borderopacity="1" inkscape:showpageshadow="0" inkscape:pageopacity="0" inkscape:pagecheckerboard="0" inkscape:deskcolor="#505050" inkscape:zoom="1.0793159" inkscape:cx="289.9985" inkscape:cy="289.9985" inkscape:window-width="1536" inkscape:window-height="844" inkscape:window-x="0" inkscape:window-y="0" inkscape:window-maximized="1" inkscape:current-layer="svg2">
    <inkscape:page x="0" y="0" width="32" height="32" id="page2" margin="0" bleed="0"/>
  </sodipodi:namedview>
  <g id="g2" transform="matrix(0.06174554,0,0,0.06882609,-1.9040011,-2.5203466)" style="fill:#ff6600" inkscape:export-filename="ferry32.png" inkscape:export-xdpi="96" inkscape:export-ydpi="96">
    <path d="m 160.77,450.55 c 8.937,-5.793 16.26,-14.225 20.826,-24.829 h 1.128 c 0.563,-3.174 1.021,-6.662 2.256,-9.023 1.463,-2.82 4.053,-4.441 6.768,-6.768 v -1.129 c 3.331,-3.453 7.049,-6.52 12.407,-7.895 10.768,-2.82 20.778,2.256 27.069,10.15 3.366,4.195 4.106,8.813 4.512,13.535 h 1.128 c 6.592,16.742 16.126,25.52 33.838,31.582 29.503,10.08 60.838,-3.418 72.188,-31.582 0.07,-0.141 1.022,-0.775 1.128,-1.127 0.176,-1.059 -0.247,-1.516 0,-2.256 0.388,-1.199 0.951,-2.891 1.128,-3.385 0.351,-0.42 0.702,-0.771 1.122,-1.121 0.054,-0.136 0.553,-1.224 1.134,-2.262 0.493,-0.918 0.635,-0.494 1.128,-1.129 1.798,-2.326 3.313,-4.477 3.384,-4.512 2.044,-2.045 5.675,-6.168 12.407,-7.895 10.785,-2.82 20.796,2.256 27.07,10.15 0,0 0.775,0.424 1.128,1.129 0.353,0.705 0.881,0.598 1.128,1.127 0.211,0.354 0,1.129 0,1.129 0,-0.035 -0.106,0.598 0,1.127 0.423,0.74 0.775,1.48 1.128,2.256 0.281,0.211 -0.424,0.705 0,1.129 0.528,1.232 1.903,2.078 2.256,3.383 h 1.128 c 0.281,0.705 -0.106,0.564 0,1.129 0.105,0.422 -0.071,0.67 0,1.127 4.287,10.89 9.904,18.427 18.126,24.023 1.093,-11.154 3.17,-26.344 7.125,-44.221 7.778,-35.16 24.631,-88.272 60.752,-141.623 l 14.515,-21.442 -25.142,-6.197 c -0.238,-0.059 -16.547,-4.1 -39.205,-10.814 v -115.11 h -73.6 V 36.619 l -143.797,1.346 -1.126,71.242 h -69.238 v 114.926 c -17.651,5.367 -33.237,9.631 -43.813,12.288 l -24.494,6.155 13.757,21.178 c 50.065,77.076 64.583,152.605 68.751,186.796 z m 7.456,-319.687 h 68.898 l 1.13,-71.441 100.82,-0.943 v 72.385 h 73.598 v 86.783 c -4.573,-1.464 -9.256,-3.001 -13.996,-4.604 -66.246,-22.412 -88.369,-38.751 -95.659,-46.496 l -12.962,-13.769 -13.148,13.59 c -17.171,17.748 -65.341,36.75 -108.681,50.935 z" fill="param(fill)" fill-opacity="param(fill-opacity)" stroke="param(outline)" stroke-opacity="param(outline-opacity)" stroke-width="param(outline-width)" id="path1" style="fill:#ff6600"/>
    <path d="m 536.885,408.998 c -9.429,-3.228 -19.69,1.8 -22.919,11.229 -11.94,34.88 -50.048,53.557 -84.931,41.645 -19.586,-6.715 -34.729,-21.765 -41.545,-41.289 -1.507,-4.317 -4.497,-7.683 -8.191,-9.761 -1.164,-0.733 -2.419,-1.359 -3.777,-1.824 -9.431,-3.228 -19.69,1.8 -22.919,11.229 -11.94,34.878 -50.046,53.556 -84.931,41.645 -18.563,-6.365 -33.115,-20.231 -40.371,-38.294 -0.916,-6.521 -5.363,-12.306 -12.021,-14.582 -7.806,-2.668 -16.163,0.327 -20.646,6.78 -1.45,1.957 -2.481,4.194 -3.05,6.565 -12.72,33.509 -49.957,51.199 -84.135,39.529 C 87.864,455.16 72.731,440.115 65.929,420.593 62.65,411.18 52.36,406.21 42.95,409.489 c -9.412,3.279 -14.384,13.567 -11.104,22.979 10.472,30.059 33.765,53.221 63.922,63.553 10.996,3.756 22.193,5.538 33.215,5.538 31.061,0 60.674,-14.174 80.18,-38.247 12.006,14.906 28.088,26.285 46.824,32.709 10.994,3.755 22.188,5.536 33.209,5.536 31.36,0 61.247,-14.454 80.751,-38.953 12.073,15.252 28.37,26.892 47.403,33.417 10.994,3.755 22.188,5.536 33.209,5.536 42.829,0 82.936,-26.934 97.556,-69.641 3.227,-9.429 -1.801,-19.689 -11.23,-22.918 z" fill="param(fill)" fill-opacity="param(fill-opacity)" stroke="param(outline)" stroke-opacity="param(outline-opacity)" stroke-width="param(outline-width)" id="path2" style="fill:#ff6600"/>
  </g>
</svg>
