<?xml version="1.0" encoding="UTF-8" standalone="no"?>
<svg xmlns:inkscape="http://www.inkscape.org/namespaces/inkscape" xmlns:sodipodi="http://sodipodi.sourceforge.net/DTD/sodipodi-0.dtd" xmlns="http://www.w3.org/2000/svg" xmlns:svg="http://www.w3.org/2000/svg" enable-background="new 0 0 32 32" height="32" viewBox="0 0 32 32" width="32" version="1.1" id="svg1" sodipodi:docname="transport_marina.svg">
  <defs id="defs1"/>
  <sodipodi:namedview id="namedview1" pagecolor="#505050" bordercolor="#eeeeee" borderopacity="1" inkscape:showpageshadow="0" inkscape:pageopacity="0" inkscape:pagecheckerboard="0" inkscape:deskcolor="#505050">
    <inkscape:page x="0" y="0" width="32" height="32" id="page2" margin="0" bleed="0"/>
  </sodipodi:namedview>
  <g id="g1" transform="matrix(0.07391359,0,0,0.06817983,-5.0608554,-4.015811)" style="fill:#000080" inkscape:export-filename="marina32.png" inkscape:export-xdpi="5.3000002" inkscape:export-ydpi="5.3000002">
    <path d="m 500.816,383.164 -14.091,-88.703 c -1.566,-9.406 -7.44,-14.108 -17.622,-14.108 -4.71,0 -9.019,1.96 -12.926,5.88 l -65.219,61.096 c -4.697,3.908 -7.046,8.604 -7.045,14.09 -0.001,9.406 4.308,15.478 12.925,18.215 l 16.457,5.288 c -8.223,22.325 -21.342,41.417 -39.358,57.276 -18.017,15.86 -38.773,26.138 -62.27,30.835 V 183.439 c 26.232,-11.365 39.35,-31.342 39.35,-59.93 0,-17.616 -6.364,-32.789 -19.092,-45.517 C 319.196,65.264 303.826,58.9 285.816,58.9 c -17.628,0 -32.804,6.365 -45.525,19.092 -12.723,12.729 -19.083,27.901 -19.083,45.517 0,28.588 13.313,48.564 39.941,59.93 v 290.186 c -23.891,-4.697 -45.236,-14.979 -64.035,-30.844 -18.8,-15.865 -32.311,-35.151 -40.533,-57.859 l 16.457,-5.288 c 8.604,-2.737 12.907,-8.809 12.907,-18.215 0,-5.091 -2.151,-9.787 -6.454,-14.09 l -65.792,-61.096 c -3.92,-3.92 -8.229,-5.88 -12.925,-5.88 -10.183,0 -16.057,4.703 -17.622,14.108 l -14.091,88.703 c -0.395,1.948 -0.591,3.316 -0.591,4.105 0,12.537 6.459,18.805 19.379,18.805 1.96,0 3.723,-0.197 5.289,-0.592 l 15.274,-5.287 c 12.537,37.599 34.958,68.34 67.262,92.225 32.304,23.885 68.822,35.827 109.552,35.827 40.335,0 76.954,-12.137 109.856,-36.409 31.719,-23.497 53.847,-54.044 66.384,-91.643 l 15.274,5.287 c 1.565,0.395 3.328,0.592 5.288,0.592 12.919,0 19.379,-6.268 19.38,-18.805 -0.001,-0.788 -0.198,-2.157 -0.592,-4.105 z M 285.817,150.543 c -7.051,0 -13.221,-2.644 -18.509,-7.933 -5.289,-5.288 -7.933,-11.655 -7.933,-19.101 0,-7.051 2.644,-13.218 7.933,-18.501 5.288,-5.282 11.458,-7.923 18.509,-7.924 7.446,0 13.81,2.642 19.092,7.924 5.282,5.283 7.924,11.45 7.924,18.501 0,7.446 -2.642,13.813 -7.924,19.101 -5.282,5.288 -11.646,7.933 -19.092,7.933 z" fill="param(fill)" fill-opacity="param(fill-opacity)" stroke="param(outline)" stroke-opacity="param(outline-opacity)" stroke-width="param(outline-width)" id="path1" style="fill:#000080"/>
  </g>
</svg>
